<?xml version="1.0" encoding="utf-8"?>
<!-- Generator: Adobe Illustrator 18.1.1, SVG Export Plug-In . SVG Version: 6.00 Build 0)  -->
<svg version="1.1" id="編集モード" xmlns="http://www.w3.org/2000/svg" xmlns:xlink="http://www.w3.org/1999/xlink" x="0px"
	 y="0px" viewBox="0 0 126 13.835" enable-background="new 0 0 126 13.835" xml:space="preserve">
<path fill="#FFFFFF" d="M45.534,9.208c0.07,0.736,0.299,1.391,0.679,1.901c0.643,0.883,1.865,1.215,3.514,1.215
	c0.734,0,1.534-0.089,2.143-0.284c1.17-0.371,1.674-1.001,1.674-1.979c0-0.875-0.213-1.239-0.746-1.616
	c-0.401-0.287-1.633-0.633-2.697-0.823c-0.736-0.13-1.666-0.283-2.542-0.497c-0.929-0.223-1.327-0.402-1.858-0.718
	c-0.92-0.552-1.448-1.506-1.448-2.682c0-1.098,0.395-1.914,1.305-2.643C46.491,0.337,47.829,0,49.476,0
	c1.518,0,2.914,0.264,3.93,1.002c0.911,0.662,1.388,1.519,1.525,2.724H53.28c-0.138-0.525-0.341-0.978-0.601-1.273
	c-0.597-0.685-1.774-1.003-3.202-1.003c-1.16,0-2.308,0.32-2.817,0.766c-0.505,0.445-0.673,0.803-0.673,1.39
	c0,0.647,0.32,1.141,0.934,1.485c0.695,0.384,1.51,0.581,2.533,0.762c0.918,0.166,1.55,0.28,2.426,0.482
	c0.965,0.231,1.556,0.472,2.094,0.809c0.858,0.54,1.399,1.645,1.399,2.625c0,1.456-0.541,2.353-1.709,3.135
	c-1.099,0.728-2.416,0.932-3.957,0.932c-1.802,0-3.316-0.417-4.33-1.255c-1.016-0.833-1.417-2.046-1.499-3.371H45.534z"/>
<path fill="#FFFFFF" d="M74.55,1.768v7.3c0,0.849,0.177,1.563,0.531,2.122c0.52,0.854,1.631,1.11,2.869,1.11
	c1.308,0,2.378-0.291,2.911-1.216c0.291-0.491,0.419-1.168,0.419-2.017v-7.3h1.763v6.635c0,1.45-0.139,2.556-0.562,3.333
	c-0.774,1.418-2.386,2.071-4.566,2.071c-2.187,0-3.774-0.71-4.552-2.126c-0.43-0.778-0.587-1.828-0.587-3.278V1.768H74.55z"/>
<polygon fill="#FFFFFF" points="68.904,1.768 68.904,3.264 64.546,3.264 64.546,13.497 62.77,13.497 62.77,3.264 58.433,3.264 
	58.433,1.768 "/>
<polygon fill="#FFFFFF" points="21.086,1.768 22.837,1.768 22.837,12.01 29.878,12.01 29.878,13.497 21.086,13.497 "/>
<rect x="13.779" y="1.767" fill="#FFFFFF" width="1.761" height="11.729"/>
<path fill="#FFFFFF" d="M8.275,9.998c0,1.061-0.212,1.796-0.511,2.254c-0.705,1.078-1.827,1.53-3.665,1.53
	c-1.186,0-1.991-0.259-2.672-0.734c-0.688-0.475-1.351-1.342-1.423-2.668L0,9.723h1.656c0.002,0.144,0.002,0.379,0.012,0.567
	c0.026,0.403,0.226,0.987,0.585,1.403c0.412,0.478,0.94,0.727,1.844,0.727c0.829,0,1.657-0.127,2.151-0.894
	c0.264-0.406,0.301-0.732,0.301-1.94V1.767h1.726V9.998z"/>
<polygon fill="#FFFFFF" points="33.017,1.768 34.762,1.768 34.762,12.01 41.815,12.01 41.805,13.497 33.017,13.497 "/>
<polygon fill="#FFFFFF" points="126,1.768 126,3.264 121.648,3.264 121.648,13.497 119.874,13.497 119.874,3.264 115.521,3.264 
	115.521,1.768 "/>
<path fill="#FFFFFF" d="M94.545,8.689l-2.014-4.99l-2.088,4.99H94.545z M91.617,1.768h1.877l5.064,11.729h-1.853l-1.481-3.322H89.75
	l-1.533,3.322h-1.846L91.617,1.768z"/>
<path fill="#FFFFFF" d="M108.135,7.043c0.819,0,1.468-0.144,1.941-0.445c0.485-0.3,0.721-0.743,0.721-1.515
	c0-0.84-0.334-1.29-1.007-1.587c-0.35-0.166-0.828-0.243-1.421-0.243h-4.215v3.79H108.135z M102.404,1.768h5.915
	c0.986,0,1.796,0.127,2.438,0.384c1.21,0.508,1.818,1.426,1.818,2.778c0,0.698-0.158,1.279-0.484,1.717
	c-0.315,0.455-0.765,0.812-1.334,1.079c0.498,0.194,0.882,0.433,1.136,0.735c0.25,0.303,0.401,0.804,0.428,1.483l0.063,1.761
	c0.014,0.444,0.043,0.76,0.096,1.008c0.078,0.329,0.134,0.617,0.38,0.784h-1.939c-0.077-0.159-0.116-0.333-0.148-0.498
	c-0.047-0.197-0.058-0.364-0.078-0.823l-0.106-1.95c-0.041-0.772-0.356-1.209-0.94-1.472c-0.338-0.134-0.86-0.211-1.578-0.211
	h-3.915v4.954h-1.75V1.768z"/>
</svg>
