<?xml version="1.0" standalone="no"?>
<!DOCTYPE svg PUBLIC "-//W3C//DTD SVG 20010904//EN"
 "http://www.w3.org/TR/2001/REC-SVG-20010904/DTD/svg10.dtd">
<svg version="1.0" xmlns="http://www.w3.org/2000/svg"
 width="310.000000pt" height="310.000000pt" viewBox="0 0 310.000000 310.000000"
 preserveAspectRatio="xMidYMid meet">
<metadata>
Created by potrace 1.11, written by Peter Selinger 2001-2013
</metadata>
<g transform="translate(0.000000,310.000000) scale(0.100000,-0.100000)"
fill="#000000" stroke="none">
<path d="M2405 2469 c-16 -5 -113 -13 -215 -19 -353 -20 -618 -55 -796 -105
-117 -33 -259 -104 -321 -159 -90 -81 -142 -218 -129 -339 20 -195 176 -305
375 -263 195 41 275 186 225 407 -15 68 -20 74 -59 63 -19 -5 -20 -13 -20
-117 0 -94 -3 -117 -20 -146 -35 -60 -67 -76 -150 -76 -67 0 -76 2 -103 28
-56 54 -65 157 -22 252 68 152 318 262 751 329 226 35 222 36 151 -23 -235
-195 -426 -479 -602 -893 -42 -101 -87 -204 -99 -229 l-22 -46 -112 -12 c-324
-36 -595 -121 -710 -222 -70 -61 -91 -108 -92 -200 0 -64 4 -84 30 -134 60
-117 154 -160 339 -153 182 7 282 55 437 208 94 94 214 260 283 391 27 51 36
59 93 84 131 57 264 163 358 285 41 54 95 141 95 153 0 4 -13 13 -28 21 l-28
14 -59 -79 c-32 -44 -88 -108 -124 -141 -60 -57 -174 -138 -192 -138 -4 0 10
39 32 88 23 48 77 170 120 272 44 102 105 233 134 293 125 247 279 432 419
502 46 23 61 25 205 26 215 1 224 5 125 52 -72 33 -88 37 -159 36 -44 0 -93
-5 -110 -10z m-1115 -1447 c0 -18 -115 -200 -174 -275 -80 -103 -116 -137
-189 -181 -69 -41 -123 -52 -174 -36 -112 36 -142 159 -64 267 65 89 252 173
478 212 132 24 123 23 123 13z"/>
</g>
</svg>
